<?xml version="1.0" standalone="no"?>
<!DOCTYPE svg PUBLIC "-//W3C//DTD SVG 20010904//EN"
 "http://www.w3.org/TR/2001/REC-SVG-20010904/DTD/svg10.dtd">
<svg version="1.0" xmlns="http://www.w3.org/2000/svg"
 width="613.000000pt" height="613.000000pt" viewBox="0 0 613.000000 613.000000"
 preserveAspectRatio="xMidYMid meet">
<metadata>
Created by potrace 1.14, written by Peter Selinger 2001-2017
</metadata>
<g transform="translate(0.000000,613.000000) scale(0.100000,-0.100000)"
fill="#000000" stroke="none">
<path d="M2910 5643 c-112 -16 -391 -107 -490 -160 -47 -25 -87 -48 -90 -52
-7 -8 -56 -40 -101 -66 -21 -11 -60 -41 -89 -67 -28 -27 -55 -48 -58 -48 -4 0
-30 -21 -57 -46 -57 -51 -117 -95 -137 -98 -7 -1 -19 -5 -25 -9 -7 -5 -13 -6
-13 -2 0 3 -13 -1 -29 -9 -17 -9 -35 -31 -44 -55 -9 -22 -21 -42 -27 -46 -18
-11 -59 -109 -61 -145 -2 -19 -6 -42 -10 -50 -4 -9 -10 -40 -13 -70 -3 -30 -9
-68 -14 -85 -11 -40 -8 -95 13 -185 9 -41 19 -91 22 -110 3 -19 9 -43 14 -52
5 -9 11 -36 14 -60 13 -119 19 -149 41 -218 13 -41 31 -91 41 -111 19 -38 101
-136 168 -200 36 -35 39 -43 41 -96 2 -72 17 -173 35 -230 2 -6 -14 -34 -36
-62 -38 -48 -44 -52 -140 -81 -55 -17 -107 -34 -115 -37 -8 -3 -21 -7 -29 -9
-49 -10 -350 -173 -389 -211 -6 -6 -21 -15 -32 -18 -11 -3 -20 -11 -20 -16 0
-5 -4 -9 -9 -9 -5 0 -42 -20 -82 -45 -40 -25 -77 -45 -81 -45 -5 0 -24 -10
-43 -22 l-35 -23 0 -1397 0 -1398 2035 0 2035 0 0 851 0 851 -30 137 c-29 132
-37 156 -66 213 -8 14 -14 33 -14 42 0 9 -3 16 -8 16 -9 0 -28 81 -38 155 -10
84 -54 153 -116 184 -15 8 -36 21 -45 30 -10 9 -88 61 -173 116 -85 54 -158
104 -162 110 -4 5 -8 6 -8 1 0 -5 -8 -2 -17 6 -25 20 -199 122 -286 167 -59
30 -72 41 -71 60 1 15 -3 20 -12 17 -8 -3 -19 5 -26 17 -6 12 -11 22 -10 22 4
0 25 67 28 95 7 55 9 64 16 75 3 6 9 34 13 63 7 50 8 52 38 53 18 0 62 2 100
3 94 3 104 -9 77 -95 -11 -35 -20 -65 -20 -67 0 -1 6 3 14 10 8 7 12 16 10 20
-3 4 9 19 25 33 39 35 45 62 18 77 -12 7 -26 11 -30 10 -5 -1 -6 2 -3 7 6 10
-5 33 -47 98 -15 24 -27 47 -27 53 0 5 -4 10 -10 10 -5 0 -10 4 -10 10 0 5
-13 31 -30 57 -29 46 -40 93 -21 93 5 0 7 12 4 28 -10 45 -7 109 11 207 2 11
7 49 11 84 7 61 11 67 64 121 77 79 109 118 132 159 11 20 28 50 39 66 44 67
52 114 52 281 0 74 -6 109 -32 190 -31 97 -75 189 -108 225 -10 9 -41 64 -71
121 -118 226 -214 347 -335 423 -89 55 -176 87 -296 110 -37 7 -98 16 -135 20
-52 6 -552 13 -585 8z m1240 -2111 c0 -5 27 -53 60 -108 32 -54 55 -103 51
-107 -14 -14 -143 -18 -160 -4 -12 10 -13 9 -6 -2 5 -9 4 -12 -3 -7 -6 4 -9
33 -6 79 3 39 6 79 6 87 2 32 58 92 58 62z"/>
</g>
</svg>
